<?xml version="1.0" encoding="UTF-8"?>
<!DOCTYPE svg PUBLIC "-//W3C//DTD SVG 1.1//EN" "http://www.w3.org/Graphics/SVG/1.1/DTD/svg11.dtd">
<svg xmlns="http://www.w3.org/2000/svg" version="1.1" width="512px" height="512px" style="shape-rendering:geometricPrecision; text-rendering:geometricPrecision; image-rendering:optimizeQuality; fill-rule:evenodd; clip-rule:evenodd" xmlns:xlink="http://www.w3.org/1999/xlink">
<g><path style="opacity:0.998" fill="#fffefe" d="M 63.5,-0.5 C 191.5,-0.5 319.5,-0.5 447.5,-0.5C 481.833,7.83333 503.167,29.1667 511.5,63.5C 511.5,191.5 511.5,319.5 511.5,447.5C 503.167,481.833 481.833,503.167 447.5,511.5C 319.5,511.5 191.5,511.5 63.5,511.5C 29.1667,503.167 7.83333,481.833 -0.5,447.5C -0.5,319.5 -0.5,191.5 -0.5,63.5C 7.83333,29.1667 29.1667,7.83333 63.5,-0.5 Z"/></g>
<g><path style="opacity:1" fill="#f26922" d="M 144.5,66.5 C 218.17,66.1667 291.836,66.5 365.5,67.5C 401.634,131.602 437.634,195.768 473.5,260C 437.381,321.068 401.381,382.235 365.5,443.5C 291.833,444.833 218.167,444.833 144.5,443.5C 108.781,382.562 73.4475,321.396 38.5,260C 73.6726,195.349 109.006,130.849 144.5,66.5 Z"/></g>
<g><path style="opacity:1" fill="#fffdfc" d="M 224.5,167.5 C 224.333,185.836 224.5,204.17 225,222.5C 225.717,221.956 226.217,221.289 226.5,220.5C 235.332,212.514 245.332,206.347 256.5,202C 304.198,195.753 333.698,215.92 345,262.5C 349.98,290.331 345.313,316.331 331,340.5C 306.607,370.584 276.44,378.084 240.5,363C 234.114,359.451 228.447,354.951 223.5,349.5C 222.505,355.128 222.171,360.794 222.5,366.5C 209.5,366.5 196.5,366.5 183.5,366.5C 183.667,303.499 183.5,240.499 183,177.5C 176.862,175.274 170.529,173.941 164,173.5C 163.333,164.167 163.333,154.833 164,145.5C 164.273,143.899 164.773,142.399 165.5,141C 178.833,140.333 192.167,140.333 205.5,141C 220.937,142.978 227.27,151.812 224.5,167.5 Z"/></g>
<g><path style="opacity:1" fill="#f69462" d="M 224.5,167.5 C 225.167,185.167 225.833,202.833 226.5,220.5C 226.217,221.289 225.717,221.956 225,222.5C 224.5,204.17 224.333,185.836 224.5,167.5 Z"/></g>
<g><path style="opacity:1" fill="#f26923" d="M 256.5,235.5 C 284.372,233.866 300.538,246.866 305,274.5C 306.556,289.163 304.223,303.163 298,316.5C 287.654,332.961 272.82,339.127 253.5,335C 236.422,328.377 226.922,315.877 225,297.5C 221.277,279.06 224.943,262.393 236,247.5C 242.058,242.059 248.891,238.059 256.5,235.5 Z"/></g>
</svg>
