<?xml version="1.0" encoding="UTF-8"?>
<!DOCTYPE svg PUBLIC "-//W3C//DTD SVG 1.1//EN" "http://www.w3.org/Graphics/SVG/1.1/DTD/svg11.dtd">
<svg xmlns="http://www.w3.org/2000/svg" version="1.1" width="512px" height="512px" style="shape-rendering:geometricPrecision; text-rendering:geometricPrecision; image-rendering:optimizeQuality; fill-rule:evenodd; clip-rule:evenodd" xmlns:xlink="http://www.w3.org/1999/xlink">
<g><path style="opacity:0.999" fill="#1976d2" d="M 52.5,-0.5 C 187.833,-0.5 323.167,-0.5 458.5,-0.5C 487.167,6.16667 504.833,23.8333 511.5,52.5C 511.5,187.833 511.5,323.167 511.5,458.5C 504.833,487.167 487.167,504.833 458.5,511.5C 422.833,511.5 387.167,511.5 351.5,511.5C 351.5,452.833 351.5,394.167 351.5,335.5C 367.514,335.833 383.514,335.499 399.5,334.5C 410.073,308.276 420.74,282.11 431.5,256C 404.835,255.5 378.169,255.333 351.5,255.5C 351.333,232.164 351.5,208.831 352,185.5C 354.007,180.162 357.841,176.996 363.5,176C 380.83,175.5 398.163,175.333 415.5,175.5C 415.5,148.833 415.5,122.167 415.5,95.5C 390.164,95.3334 364.831,95.5 339.5,96C 300.357,102.476 273.857,124.309 260,161.5C 258.667,167.5 257.333,173.5 256,179.5C 255.5,204.831 255.333,230.164 255.5,255.5C 234.167,255.5 212.833,255.5 191.5,255.5C 191.5,282.167 191.5,308.833 191.5,335.5C 212.833,335.5 234.167,335.5 255.5,335.5C 255.5,394.167 255.5,452.833 255.5,511.5C 187.833,511.5 120.167,511.5 52.5,511.5C 23.8333,504.833 6.16667,487.167 -0.5,458.5C -0.5,323.167 -0.5,187.833 -0.5,52.5C 6.16667,23.8333 23.8333,6.16667 52.5,-0.5 Z"/></g>
<g><path style="opacity:1" fill="#f9f9f9" d="M 351.5,511.5 C 319.5,511.5 287.5,511.5 255.5,511.5C 255.5,452.833 255.5,394.167 255.5,335.5C 234.167,335.5 212.833,335.5 191.5,335.5C 191.5,308.833 191.5,282.167 191.5,255.5C 212.833,255.5 234.167,255.5 255.5,255.5C 255.333,230.164 255.5,204.831 256,179.5C 257.333,173.5 258.667,167.5 260,161.5C 273.857,124.309 300.357,102.476 339.5,96C 364.831,95.5 390.164,95.3334 415.5,95.5C 415.5,122.167 415.5,148.833 415.5,175.5C 398.163,175.333 380.83,175.5 363.5,176C 357.841,176.996 354.007,180.162 352,185.5C 351.5,208.831 351.333,232.164 351.5,255.5C 378.169,255.333 404.835,255.5 431.5,256C 420.74,282.11 410.073,308.276 399.5,334.5C 383.514,335.499 367.514,335.833 351.5,335.5C 351.5,394.167 351.5,452.833 351.5,511.5 Z"/></g>
</svg>
