<?xml version="1.0" encoding="UTF-8"?>
<!DOCTYPE svg PUBLIC "-//W3C//DTD SVG 1.1//EN" "http://www.w3.org/Graphics/SVG/1.1/DTD/svg11.dtd">
<svg xmlns="http://www.w3.org/2000/svg" version="1.1" width="512px" height="512px" style="shape-rendering:geometricPrecision; text-rendering:geometricPrecision; image-rendering:optimizeQuality; fill-rule:evenodd; clip-rule:evenodd" xmlns:xlink="http://www.w3.org/1999/xlink">
<g><path style="opacity:0.992" fill="#000000" d="M 81.5,-0.5 C 197.5,-0.5 313.5,-0.5 429.5,-0.5C 474.5,9.16667 501.833,36.5 511.5,81.5C 511.5,197.5 511.5,313.5 511.5,429.5C 501.833,474.5 474.5,501.833 429.5,511.5C 396.167,511.5 362.833,511.5 329.5,511.5C 323.098,510.254 319.598,506.254 319,499.5C 318.958,465.8 318.291,432.133 317,398.5C 315.091,386.773 309.924,376.773 301.5,368.5C 332.984,366.243 360.984,355.409 385.5,336C 402.468,318.226 412.635,297.06 416,272.5C 421.103,247.075 418.769,222.408 409,198.5C 404.836,190.005 399.502,182.339 393,175.5C 395.361,165.194 396.861,154.694 397.5,144C 397.199,130.994 394.532,118.494 389.5,106.5C 380.131,104.647 371.131,105.813 362.5,110C 347.184,116.074 332.684,123.574 319,132.5C 276.667,120.5 234.333,120.5 192,132.5C 176.549,122.358 160.049,114.192 142.5,108C 135.406,105.556 128.239,105.056 121,106.5C 116.296,118.559 113.796,131.059 113.5,144C 114.138,154.69 115.638,165.19 118,175.5C 103.137,191.905 94.8037,211.238 93,233.5C 90.9886,262.777 96.6552,290.444 110,316.5C 121.546,334.704 137.38,347.87 157.5,356C 174.343,362.136 191.676,366.303 209.5,368.5C 199.843,378.148 194.177,389.815 192.5,403.5C 175.765,410.365 158.765,411.198 141.5,406C 134.792,402.298 128.959,397.465 124,391.5C 119.914,384.993 115.58,378.66 111,372.5C 101.686,362.843 90.3524,357.176 77,355.5C 73.2291,355.585 70.0625,356.918 67.5,359.5C 71.08,365.58 76.08,370.08 82.5,373C 89.9927,379.835 96.1594,387.668 101,396.5C 104.486,406.976 109.653,416.476 116.5,425C 128.354,434.731 142.02,439.731 157.5,440C 169.223,440.72 180.89,440.22 192.5,438.5C 192.667,459.503 192.5,480.503 192,501.5C 190.205,506.279 187.038,509.612 182.5,511.5C 148.833,511.5 115.167,511.5 81.5,511.5C 36.5,501.833 9.16667,474.5 -0.5,429.5C -0.5,313.5 -0.5,197.5 -0.5,81.5C 9.16667,36.5 36.5,9.16667 81.5,-0.5 Z"/></g>
<g><path style="opacity:0.702" fill="#000000" d="M 89.5,362.5 C 91.9892,362.298 94.3225,362.798 96.5,364C 97.5171,365.049 97.6838,366.216 97,367.5C 91.9809,369.65 89.4809,367.984 89.5,362.5 Z"/></g>
<g><path style="opacity:0.749" fill="#000000" d="M 101.5,370.5 C 106.588,371.39 108.588,374.223 107.5,379C 103.074,380.252 100.408,378.586 99.5,374C 99.9783,372.697 100.645,371.531 101.5,370.5 Z"/></g>
<g><path style="opacity:0.775" fill="#000000" d="M 112.5,383.5 C 118.029,385.188 119.696,388.688 117.5,394C 114.083,394.876 111.583,393.709 110,390.5C 108.916,387.341 109.75,385.008 112.5,383.5 Z"/></g>
<g><path style="opacity:0.762" fill="#000000" d="M 123.5,398.5 C 130.834,398.785 133.168,402.119 130.5,408.5C 127.022,409.691 124.189,408.691 122,405.5C 121.167,402.829 121.667,400.496 123.5,398.5 Z"/></g>
<g><path style="opacity:0.776" fill="#000000" d="M 140.5,409.5 C 143.271,409.421 145.937,409.921 148.5,411C 151.58,414.853 150.747,417.353 146,418.5C 138.986,418.332 137.152,415.332 140.5,409.5 Z"/></g>
<g><path style="opacity:0.802" fill="#000000" d="M 182.5,410.5 C 188.702,409.366 191.035,411.699 189.5,417.5C 186.711,419.298 183.711,419.798 180.5,419C 178.776,415.464 179.443,412.631 182.5,410.5 Z"/></g>
<g><path style="opacity:0.789" fill="#000000" d="M 161.5,413.5 C 165.007,412.994 168.174,413.66 171,415.5C 171.825,417.701 171.325,419.534 169.5,421C 166.5,421.667 163.5,421.667 160.5,421C 159.083,418.257 159.416,415.757 161.5,413.5 Z"/></g>
</svg>
