<?xml version="1.0" encoding="UTF-8"?>
<!DOCTYPE svg PUBLIC "-//W3C//DTD SVG 1.1//EN" "http://www.w3.org/Graphics/SVG/1.1/DTD/svg11.dtd">
<svg xmlns="http://www.w3.org/2000/svg" version="1.1" width="512px" height="512px" style="shape-rendering:geometricPrecision; text-rendering:geometricPrecision; image-rendering:optimizeQuality; fill-rule:evenodd; clip-rule:evenodd" xmlns:xlink="http://www.w3.org/1999/xlink">
<g><path style="opacity:0.994" fill="#fc3718" d="M 161.5,200.5 C 117.167,200.5 72.8333,200.5 28.5,200.5C 47.6242,142.627 66.4575,84.6266 85,26.5C 87.7299,19.947 92.5632,17.7804 99.5,20C 101.286,20.7845 102.786,21.9512 104,23.5C 123.274,82.4868 142.44,141.487 161.5,200.5 Z"/></g>
<g><path style="opacity:0.993" fill="#fc3718" d="M 482.5,200.5 C 438.167,200.5 393.833,200.5 349.5,200.5C 368.428,142.215 387.261,83.8821 406,25.5C 409.277,19.8912 414.11,18.0578 420.5,20C 422.57,20.9476 424.07,22.4476 425,24.5C 444.077,83.2314 463.244,141.898 482.5,200.5 Z"/></g>
<g><path style="opacity:0.99" fill="#ffa000" d="M 28.5,201.5 C 28.8333,201.5 29.1667,201.5 29.5,201.5C 104.511,297.539 179.511,393.539 254.5,489.5C 254.5,489.833 254.5,490.167 254.5,490.5C 254.167,490.5 253.833,490.5 253.5,490.5C 171.991,431.165 90.3248,371.998 8.5,313C 4.46219,309.817 1.46219,305.984 -0.5,301.5C -0.5,297.167 -0.5,292.833 -0.5,288.5C 9.3412,259.643 19.0079,230.643 28.5,201.5 Z"/></g>
<g><path style="opacity:1" fill="#fe6d17" d="M 29.5,201.5 C 73.505,201.167 117.505,201.5 161.5,202.5C 193.109,297.994 224.109,393.66 254.5,489.5C 179.511,393.539 104.511,297.539 29.5,201.5 Z"/></g>
<g><path style="opacity:1" fill="#fc3818" d="M 28.5,201.5 C 28.5,201.167 28.5,200.833 28.5,200.5C 72.8333,200.5 117.167,200.5 161.5,200.5C 224.167,200.5 286.833,200.5 349.5,200.5C 393.833,200.5 438.167,200.5 482.5,200.5C 482.5,200.833 482.5,201.167 482.5,201.5C 482.167,201.5 481.833,201.5 481.5,201.5C 437.495,201.167 393.495,201.5 349.5,202.5C 317.891,297.994 286.891,393.66 256.5,489.5C 256.158,490.338 255.492,490.672 254.5,490.5C 254.5,490.167 254.5,489.833 254.5,489.5C 224.109,393.66 193.109,297.994 161.5,202.5C 117.505,201.5 73.505,201.167 29.5,201.5C 29.1667,201.5 28.8333,201.5 28.5,201.5 Z"/></g>
<g><path style="opacity:1" fill="#fe6d17" d="M 481.5,201.5 C 406.489,297.539 331.489,393.539 256.5,489.5C 286.891,393.66 317.891,297.994 349.5,202.5C 393.495,201.5 437.495,201.167 481.5,201.5 Z"/></g>
<g><path style="opacity:0.989" fill="#ffa000" d="M 481.5,201.5 C 481.833,201.5 482.167,201.5 482.5,201.5C 491.992,230.643 501.659,259.643 511.5,288.5C 511.5,292.833 511.5,297.167 511.5,301.5C 509.538,305.984 506.538,309.817 502.5,313C 420.553,371.946 338.887,431.28 257.5,491C 255.934,491.765 254.601,491.598 253.5,490.5C 253.833,490.5 254.167,490.5 254.5,490.5C 255.492,490.672 256.158,490.338 256.5,489.5C 331.489,393.539 406.489,297.539 481.5,201.5 Z"/></g>
</svg>
