<?xml version="1.0" encoding="UTF-8"?>
<!DOCTYPE svg PUBLIC "-//W3C//DTD SVG 1.1//EN" "http://www.w3.org/Graphics/SVG/1.1/DTD/svg11.dtd">
<svg xmlns="http://www.w3.org/2000/svg" version="1.1" width="256px" height="256px" style="shape-rendering:geometricPrecision; text-rendering:geometricPrecision; image-rendering:optimizeQuality; fill-rule:evenodd; clip-rule:evenodd" xmlns:xlink="http://www.w3.org/1999/xlink">
<g><path style="opacity:1" fill="#cc0d7b" d="M 122.5,-0.5 C 125.833,-0.5 129.167,-0.5 132.5,-0.5C 166.273,19.5591 200.273,39.3924 234.5,59C 236,60.5 237.5,62 239,63.5C 240.156,84.7469 240.656,106.08 240.5,127.5C 240.333,148.167 240.167,168.833 240,189.5C 239.333,190.833 238.667,192.167 238,193.5C 203.258,214.428 168.424,235.095 133.5,255.5C 129.5,255.5 125.5,255.5 121.5,255.5C 86.5756,235.095 51.7423,214.428 17,193.5C 16.3333,192.167 15.6667,190.833 15,189.5C 14.8333,168.833 14.6667,148.167 14.5,127.5C 14.3437,106.08 14.8437,84.7469 16,63.5C 17.5,62 19,60.5 20.5,59C 54.727,39.3924 88.727,19.5591 122.5,-0.5 Z"/></g>
<g><path style="opacity:1" fill="#fe3eb4" d="M 123.5,24.5 C 127.792,24.0349 131.792,24.8682 135.5,27C 161.242,42.3995 187.242,57.3995 213.5,72C 215.378,73.5429 216.878,75.3762 218,77.5C 218.667,110.833 218.667,144.167 218,177.5C 217.333,178.833 216.667,180.167 216,181.5C 189.418,196.874 162.918,212.374 136.5,228C 132.613,231.03 128.28,232.03 123.5,231C 95.9969,214.747 68.3302,198.747 40.5,183C 38.9588,181.421 37.7922,179.587 37,177.5C 36.0142,143.415 36.3475,109.415 38,75.5C 40.3834,72.7272 43.2167,70.5605 46.5,69C 72.5565,54.6451 98.2231,39.8117 123.5,24.5 Z"/></g>
<g><path style="opacity:1" fill="#fffefe" d="M 102.5,110.5 C 118.658,111.496 134.991,111.83 151.5,111.5C 151.5,94.8333 151.5,78.1667 151.5,61.5C 159.833,61.5 168.167,61.5 176.5,61.5C 176.5,105.833 176.5,150.167 176.5,194.5C 168.167,194.5 159.833,194.5 151.5,194.5C 151.5,174.833 151.5,155.167 151.5,135.5C 135.167,135.5 118.833,135.5 102.5,135.5C 102.5,155.167 102.5,174.833 102.5,194.5C 94.1667,194.5 85.8333,194.5 77.5,194.5C 77.5,150.167 77.5,105.833 77.5,61.5C 85.8333,61.5 94.1667,61.5 102.5,61.5C 102.5,77.8333 102.5,94.1667 102.5,110.5 Z"/></g>
<g><path style="opacity:1" fill="#ffafe0" d="M 151.5,61.5 C 151.5,78.1667 151.5,94.8333 151.5,111.5C 134.991,111.83 118.658,111.496 102.5,110.5C 118.5,110.5 134.5,110.5 150.5,110.5C 150.17,93.9915 150.504,77.6581 151.5,61.5 Z"/></g>
</svg>
