<?xml version="1.0" encoding="UTF-8"?>
<!DOCTYPE svg PUBLIC "-//W3C//DTD SVG 1.1//EN" "http://www.w3.org/Graphics/SVG/1.1/DTD/svg11.dtd">
<svg xmlns="http://www.w3.org/2000/svg" version="1.1" width="512px" height="512px" style="shape-rendering:geometricPrecision; text-rendering:geometricPrecision; image-rendering:optimizeQuality; fill-rule:evenodd; clip-rule:evenodd" xmlns:xlink="http://www.w3.org/1999/xlink">
<g><path style="opacity:0.998" fill="#f34e54" d="M 117.5,-0.5 C 122.167,-0.5 126.833,-0.5 131.5,-0.5C 150.875,21.5395 169.875,43.8728 188.5,66.5C 181.461,66.9642 174.461,67.6309 167.5,68.5C 148.389,46.4577 129.389,24.291 110.5,2C 111.056,1.61742 111.389,1.11742 111.5,0.5C 113.735,0.794717 115.735,0.461384 117.5,-0.5 Z"/></g>
<g><path style="opacity:1" fill="#f04c5a" d="M 131.5,-0.5 C 139.167,-0.5 146.833,-0.5 154.5,-0.5C 173.542,21.2064 192.209,43.2064 210.5,65.5C 207.287,65.19 204.287,65.5233 201.5,66.5C 197.167,66.5 192.833,66.5 188.5,66.5C 169.875,43.8728 150.875,21.5395 131.5,-0.5 Z"/></g>
<g><path style="opacity:1" fill="#ed4a60" d="M 154.5,-0.5 C 162.167,-0.5 169.833,-0.5 177.5,-0.5C 196.167,21.5 214.833,43.5 233.5,65.5C 225.833,65.5 218.167,65.5 210.5,65.5C 192.209,43.2064 173.542,21.2064 154.5,-0.5 Z"/></g>
<g><path style="opacity:1" fill="#ea4967" d="M 177.5,-0.5 C 186.5,-0.5 195.5,-0.5 204.5,-0.5C 222.582,21.7552 241.249,43.5886 260.5,65C 251.506,65.4998 242.506,65.6664 233.5,65.5C 214.833,43.5 196.167,21.5 177.5,-0.5 Z"/></g>
<g><path style="opacity:1" fill="#e7486e" d="M 204.5,-0.5 C 212.167,-0.5 219.833,-0.5 227.5,-0.5C 245.769,21.7742 264.435,43.7742 283.5,65.5C 278.305,65.1795 273.305,65.5128 268.5,66.5C 246.167,66.5 223.833,66.5 201.5,66.5C 204.287,65.5233 207.287,65.19 210.5,65.5C 218.167,65.5 225.833,65.5 233.5,65.5C 242.506,65.6664 251.506,65.4998 260.5,65C 241.249,43.5886 222.582,21.7552 204.5,-0.5 Z"/></g>
<g><path style="opacity:1" fill="#e44573" d="M 227.5,-0.5 C 234.833,-0.5 242.167,-0.5 249.5,-0.5C 268.291,21.4615 287.291,43.2949 306.5,65C 298.841,65.4997 291.174,65.6664 283.5,65.5C 264.435,43.7742 245.769,21.7742 227.5,-0.5 Z"/></g>
<g><path style="opacity:1" fill="#e14479" d="M 249.5,-0.5 C 257.167,-0.5 264.833,-0.5 272.5,-0.5C 291.477,21.4804 310.477,43.4804 329.5,65.5C 327.257,66.4742 324.924,66.8076 322.5,66.5C 304.5,66.5 286.5,66.5 268.5,66.5C 273.305,65.5128 278.305,65.1795 283.5,65.5C 291.174,65.6664 298.841,65.4997 306.5,65C 287.291,43.2949 268.291,21.4615 249.5,-0.5 Z"/></g>
<g><path style="opacity:1" fill="#dd4380" d="M 272.5,-0.5 C 281.5,-0.5 290.5,-0.5 299.5,-0.5C 318.165,21.0001 336.665,42.6668 355,64.5C 357.464,67.481 360.297,69.8144 363.5,71.5C 349.783,69.098 336.117,67.4313 322.5,66.5C 324.924,66.8076 327.257,66.4742 329.5,65.5C 310.477,43.4804 291.477,21.4804 272.5,-0.5 Z"/></g>
<g><path style="opacity:1" fill="#da4187" d="M 299.5,-0.5 C 307.167,-0.5 314.833,-0.5 322.5,-0.5C 346.126,27.7945 370.126,55.7945 394.5,83.5C 384.656,78.3281 374.322,74.3281 363.5,71.5C 360.297,69.8144 357.464,67.481 355,64.5C 336.665,42.6668 318.165,21.0001 299.5,-0.5 Z"/></g>
<g><path style="opacity:0.999" fill="#d73f8c" d="M 322.5,-0.5 C 329.167,-0.5 335.833,-0.5 342.5,-0.5C 398.489,64.8206 454.822,129.821 511.5,194.5C 511.5,202.167 511.5,209.833 511.5,217.5C 485.82,187.824 459.82,158.491 433.5,129.5C 425.545,109.879 412.545,94.5459 394.5,83.5C 370.126,55.7945 346.126,27.7945 322.5,-0.5 Z"/></g>
<g><path style="opacity:0.999" fill="#d53d90" d="M 342.5,-0.5 C 346.833,-0.5 351.167,-0.5 355.5,-0.5C 407.156,59.8206 459.156,119.821 511.5,179.5C 511.5,184.5 511.5,189.5 511.5,194.5C 454.822,129.821 398.489,64.8206 342.5,-0.5 Z"/></g>
<g><path style="opacity:0.999" fill="#d33d93" d="M 355.5,-0.5 C 359.833,-0.5 364.167,-0.5 368.5,-0.5C 415.822,54.8206 463.489,109.821 511.5,164.5C 511.5,169.5 511.5,174.5 511.5,179.5C 459.156,119.821 407.156,59.8206 355.5,-0.5 Z"/></g>
<g><path style="opacity:0.997" fill="#d13b98" d="M 368.5,-0.5 C 377.5,-0.5 386.5,-0.5 395.5,-0.5C 433.932,44.6954 472.599,89.6954 511.5,134.5C 511.5,144.5 511.5,154.5 511.5,164.5C 463.489,109.821 415.822,54.8206 368.5,-0.5 Z"/></g>
<g><path style="opacity:0.995" fill="#f64f4e" d="M 111.5,0.5 C 111.389,1.11742 111.056,1.61742 110.5,2C 129.389,24.291 148.389,46.4577 167.5,68.5C 159.78,69.5777 152.113,70.911 144.5,72.5C 124.792,50.1274 105.459,27.4607 86.5,4.5C 94.5878,2.4429 102.921,1.10957 111.5,0.5 Z"/></g>
<g><path style="opacity:0.994" fill="#cd3a9f" d="M 395.5,-0.5 C 398.167,-0.5 400.833,-0.5 403.5,-0.5C 409.342,0.670921 415.342,1.67092 421.5,2.5C 422.072,4.25542 422.906,5.92209 424,7.5C 453.404,40.7303 482.571,74.0637 511.5,107.5C 511.5,116.5 511.5,125.5 511.5,134.5C 472.599,89.6954 433.932,44.6954 395.5,-0.5 Z"/></g>
<g><path style="opacity:0.992" fill="#cb38a3" d="M 421.5,2.5 C 426.433,3.25969 431.099,4.59303 435.5,6.5C 458.934,34.4413 482.6,62.2747 506.5,90C 507.094,90.4643 507.761,90.631 508.5,90.5C 509.588,95.6052 510.588,100.605 511.5,105.5C 511.5,106.167 511.5,106.833 511.5,107.5C 482.571,74.0637 453.404,40.7303 424,7.5C 422.906,5.92209 422.072,4.25542 421.5,2.5 Z"/></g>
<g><path style="opacity:0.996" fill="#fa5147" d="M 86.5,4.5 C 105.459,27.4607 124.792,50.1274 144.5,72.5C 138.297,73.9373 132.297,75.9373 126.5,78.5C 107.208,55.2057 87.5412,32.2057 67.5,9.5C 73.6081,7.05604 79.9415,5.38938 86.5,4.5 Z"/></g>
<g><path style="opacity:0.987" fill="#c937a7" d="M 435.5,6.5 C 475.59,20.608 499.923,48.608 508.5,90.5C 507.761,90.631 507.094,90.4643 506.5,90C 482.6,62.2747 458.934,34.4413 435.5,6.5 Z"/></g>
<g><path style="opacity:0.995" fill="#fd5341" d="M 67.5,9.5 C 87.5412,32.2057 107.208,55.2057 126.5,78.5C 121.14,81.1799 115.807,83.8466 110.5,86.5C 91.2079,63.2057 71.5412,40.2057 51.5,17.5C 56.5156,14.3255 61.8489,11.6588 67.5,9.5 Z"/></g>
<g><path style="opacity:0.997" fill="#ff593f" d="M 51.5,17.5 C 71.5412,40.2057 91.2079,63.2057 110.5,86.5C 104.562,91.0992 98.8953,96.0992 93.5,101.5C 73.5384,78.203 53.2051,55.203 32.5,32.5C 37.9467,26.3877 44.28,21.3877 51.5,17.5 Z"/></g>
<g><path style="opacity:0.996" fill="#ff6040" d="M 32.5,32.5 C 53.2051,55.203 73.5384,78.203 93.5,101.5C 91.0659,105.382 88.3993,109.048 85.5,112.5C 65.1592,90.3226 45.3258,67.656 26,44.5C 25.3292,43.7476 24.4959,43.4142 23.5,43.5C 26.1285,39.5373 29.1285,35.8706 32.5,32.5 Z"/></g>
<g><path style="opacity:0.996" fill="#ff6741" d="M 23.5,43.5 C 24.4959,43.4142 25.3292,43.7476 26,44.5C 45.3258,67.656 65.1592,90.3226 85.5,112.5C 82.8333,117.833 80.1667,123.167 77.5,128.5C 56.5,104.5 35.5,80.5 14.5,56.5C 16.3375,51.3346 19.3375,47.0013 23.5,43.5 Z"/></g>
<g><path style="opacity:0.996" fill="#ff6d42" d="M 14.5,56.5 C 35.5,80.5 56.5,104.5 77.5,128.5C 75.2384,133.285 73.5718,138.285 72.5,143.5C 51.5317,119.693 30.6983,95.6927 10,71.5C 9.32924,70.7476 8.4959,70.4142 7.5,70.5C 9.32325,65.5201 11.6566,60.8535 14.5,56.5 Z"/></g>
<g><path style="opacity:1" fill="#fffefd" d="M 188.5,66.5 C 192.833,66.5 197.167,66.5 201.5,66.5C 223.833,66.5 246.167,66.5 268.5,66.5C 286.5,66.5 304.5,66.5 322.5,66.5C 336.117,67.4313 349.783,69.098 363.5,71.5C 374.322,74.3281 384.656,78.3281 394.5,83.5C 412.545,94.5459 425.545,109.879 433.5,129.5C 438.205,141.054 441.205,153.054 442.5,165.5C 444.005,176.434 444.672,187.434 444.5,198.5C 444.5,210.167 444.5,221.833 444.5,233.5C 444.5,239.5 444.5,245.5 444.5,251.5C 444.5,260.5 444.5,269.5 444.5,278.5C 444.5,288.833 444.5,299.167 444.5,309.5C 444.573,317.854 444.24,326.188 443.5,334.5C 442.562,342.136 441.562,349.802 440.5,357.5C 438.816,364.9 436.816,372.233 434.5,379.5C 432.027,385.779 429.027,391.779 425.5,397.5C 422.078,402.678 418.411,407.678 414.5,412.5C 409.848,415.821 405.515,419.487 401.5,423.5C 395.139,427.347 388.472,430.681 381.5,433.5C 377.224,434.986 372.891,436.319 368.5,437.5C 362.533,438.96 356.533,440.294 350.5,441.5C 344.558,442.531 338.558,443.197 332.5,443.5C 326.509,443.966 320.509,444.299 314.5,444.5C 312.5,444.5 310.5,444.5 308.5,444.5C 289.5,444.5 270.5,444.5 251.5,444.5C 230.833,444.5 210.167,444.5 189.5,444.5C 180.996,443.638 172.33,442.971 163.5,442.5C 155.662,440.633 147.662,438.967 139.5,437.5C 124.734,432.783 111.4,425.45 99.5,415.5C 94.6769,410.494 90.3435,405.161 86.5,399.5C 78.2444,385.39 72.5778,370.39 69.5,354.5C 69.1109,347.661 68.4442,340.994 67.5,334.5C 66.9625,327.178 66.6291,319.845 66.5,312.5C 66.5,306.5 66.5,300.5 66.5,294.5C 66.5,264.833 66.5,235.167 66.5,205.5C 66.5,203.833 66.5,202.167 66.5,200.5C 66.5,193.167 66.5,185.833 66.5,178.5C 67.674,172.601 68.3406,166.601 68.5,160.5C 69.578,154.777 70.9113,149.111 72.5,143.5C 73.5718,138.285 75.2384,133.285 77.5,128.5C 80.1667,123.167 82.8333,117.833 85.5,112.5C 88.3993,109.048 91.0659,105.382 93.5,101.5C 98.8953,96.0992 104.562,91.0992 110.5,86.5C 115.807,83.8466 121.14,81.1799 126.5,78.5C 132.297,75.9373 138.297,73.9373 144.5,72.5C 152.113,70.911 159.78,69.5777 167.5,68.5C 174.461,67.6309 181.461,66.9642 188.5,66.5 Z"/></g>
<g><path style="opacity:0.996" fill="#ff7343" d="M 7.5,70.5 C 8.4959,70.4142 9.32924,70.7476 10,71.5C 30.6983,95.6927 51.5317,119.693 72.5,143.5C 70.9113,149.111 69.578,154.777 68.5,160.5C 47.1984,136.359 26.0317,112.026 5,87.5C 4.50999,86.2068 4.34332,84.8734 4.5,83.5C 5.02895,79.0513 6.02895,74.718 7.5,70.5 Z"/></g>
<g><path style="opacity:0.997" fill="#ff7944" d="M 4.5,83.5 C 4.34332,84.8734 4.50999,86.2068 5,87.5C 26.0317,112.026 47.1984,136.359 68.5,160.5C 68.3406,166.601 67.674,172.601 66.5,178.5C 46.8254,156.989 27.6587,134.989 9,112.5C 6.25055,109.579 3.41722,106.912 0.5,104.5C 1.09693,97.2342 2.43027,90.2342 4.5,83.5 Z"/></g>
<g><path style="opacity:1" fill="#f04e5c" d="M 186.5,101.5 C 204.659,100.503 222.992,100.17 241.5,100.5C 261.231,122.892 280.564,145.559 299.5,168.5C 288.408,163.899 277.075,160.566 265.5,158.5C 266.552,158.649 267.552,158.483 268.5,158C 252.402,139.146 236.069,120.479 219.5,102C 211.841,101.5 204.174,101.334 196.5,101.5C 193.167,101.5 189.833,101.5 186.5,101.5 Z"/></g>
<g><path style="opacity:1" fill="#ee4b5f" d="M 241.5,100.5 C 245.833,100.5 250.167,100.5 254.5,100.5C 305.844,161.144 357.678,221.477 410,281.5C 410.497,283.81 410.663,286.143 410.5,288.5C 410.5,290.833 410.5,293.167 410.5,295.5C 390.198,272.359 370.032,249.026 350,225.5C 349.31,224.262 348.81,224.262 348.5,225.5C 338.947,200.618 322.614,181.618 299.5,168.5C 280.564,145.559 261.231,122.892 241.5,100.5 Z"/></g>
<g><path style="opacity:1" fill="#ec4a62" d="M 254.5,100.5 C 257.833,100.5 261.167,100.5 264.5,100.5C 313.156,157.154 362.156,213.488 411.5,269.5C 411.823,276.022 411.49,282.355 410.5,288.5C 410.663,286.143 410.497,283.81 410,281.5C 357.678,221.477 305.844,161.144 254.5,100.5 Z"/></g>
<g><path style="opacity:1" fill="#ea4966" d="M 264.5,100.5 C 273.5,100.5 282.5,100.5 291.5,100.5C 305.5,116.833 319.5,133.167 333.5,149.5C 332.727,167.056 341.06,176.39 358.5,177.5C 376.177,198.207 393.843,218.874 411.5,239.5C 411.5,249.5 411.5,259.5 411.5,269.5C 362.156,213.488 313.156,157.154 264.5,100.5 Z"/></g>
<g><path style="opacity:1" fill="#e7476d" d="M 291.5,100.5 C 299.167,100.5 306.833,100.5 314.5,100.5C 324.567,111.894 334.234,123.561 343.5,135.5C 339.006,139.329 335.672,143.996 333.5,149.5C 319.5,133.167 305.5,116.833 291.5,100.5 Z"/></g>
<g><path style="opacity:1" fill="#f6504e" d="M 186.5,101.5 C 189.833,101.5 193.167,101.5 196.5,101.5C 213.207,120.205 229.541,139.205 245.5,158.5C 238.026,159.535 230.692,161.202 223.5,163.5C 205.922,143.321 188.588,122.988 171.5,102.5C 176.463,101.746 181.463,101.413 186.5,101.5 Z"/></g>
<g><path style="opacity:1" fill="#f34d55" d="M 196.5,101.5 C 204.174,101.334 211.841,101.5 219.5,102C 236.069,120.479 252.402,139.146 268.5,158C 267.552,158.483 266.552,158.649 265.5,158.5C 258.833,158.5 252.167,158.5 245.5,158.5C 229.541,139.205 213.207,120.205 196.5,101.5 Z"/></g>
<g><path style="opacity:0.997" fill="#ff8045" d="M 0.5,104.5 C 3.41722,106.912 6.25055,109.579 9,112.5C 27.6587,134.989 46.8254,156.989 66.5,178.5C 66.5,185.833 66.5,193.167 66.5,200.5C 65.7784,200.918 65.2784,201.584 65,202.5C 43.3016,177.307 21.4682,152.307 -0.5,127.5C -0.5,121.167 -0.5,114.833 -0.5,108.5C 0.434475,107.432 0.767809,106.099 0.5,104.5 Z"/></g>
<g><path style="opacity:1" fill="#fa5247" d="M 171.5,102.5 C 188.588,122.988 205.922,143.321 223.5,163.5C 217.713,165.894 212.046,168.56 206.5,171.5C 189.92,151.377 173.087,131.377 156,111.5C 154.223,109.21 152.056,107.543 149.5,106.5C 156.515,104.122 163.848,102.788 171.5,102.5 Z"/></g>
<g><path style="opacity:1" fill="#e0457c" d="M 346.5,103.5 C 374.098,105.611 392.598,119.611 402,145.5C 404.691,153.649 406.525,161.983 407.5,170.5C 407.649,171.552 407.483,172.552 407,173.5C 386.589,150.322 366.423,126.989 346.5,103.5 Z"/></g>
<g><path style="opacity:1" fill="#fd5342" d="M 149.5,106.5 C 152.056,107.543 154.223,109.21 156,111.5C 173.087,131.377 189.92,151.377 206.5,171.5C 201.555,174.445 196.888,177.779 192.5,181.5C 174.835,160.999 157.335,140.333 140,119.5C 137.894,116.882 135.394,114.882 132.5,113.5C 137.524,109.828 143.19,107.495 149.5,106.5 Z"/></g>
<g><path style="opacity:1" fill="#ff593f" d="M 132.5,113.5 C 135.394,114.882 137.894,116.882 140,119.5C 157.335,140.333 174.835,160.999 192.5,181.5C 186.823,186.178 181.823,191.511 177.5,197.5C 174.583,195.088 171.749,192.421 169,189.5C 152,169.833 135,150.167 118,130.5C 117.517,129.552 117.351,128.552 117.5,127.5C 121.237,121.428 126.237,116.761 132.5,113.5 Z"/></g>
<g><path style="opacity:1" fill="#ff8646" d="M -0.5,127.5 C 21.4682,152.307 43.3016,177.307 65,202.5C 65.2784,201.584 65.7784,200.918 66.5,200.5C 66.5,202.167 66.5,203.833 66.5,205.5C 65.5104,211.31 65.1771,217.31 65.5,223.5C 43.5,198.5 21.5,173.5 -0.5,148.5C -0.5,141.5 -0.5,134.5 -0.5,127.5 Z"/></g>
<g><path style="opacity:1" fill="#ff6140" d="M 117.5,127.5 C 117.351,128.552 117.517,129.552 118,130.5C 135,150.167 152,169.833 169,189.5C 171.749,192.421 174.583,195.088 177.5,197.5C 174.82,201.537 172.154,205.537 169.5,209.5C 149.093,187.43 129.426,164.763 110.5,141.5C 111.799,136.236 114.132,131.569 117.5,127.5 Z"/></g>
<g><path style="opacity:1" fill="#fefdfd" d="M 373.5,169.5 C 369.507,173.997 364.507,176.664 358.5,177.5C 341.06,176.39 332.727,167.056 333.5,149.5C 335.672,143.996 339.006,139.329 343.5,135.5C 358.849,128.671 370.349,132.671 378,147.5C 379.659,155.57 378.159,162.904 373.5,169.5 Z"/></g>
<g><path style="opacity:1" fill="#ff6741" d="M 110.5,141.5 C 129.426,164.763 149.093,187.43 169.5,209.5C 166.888,215.057 164.554,220.724 162.5,226.5C 143.128,205.13 124.128,183.463 105.5,161.5C 105.977,154.428 107.643,147.761 110.5,141.5 Z"/></g>
<g><path style="opacity:1" fill="#ff8c47" d="M -0.5,148.5 C 21.5,173.5 43.5,198.5 65.5,223.5C 65.5,230.5 65.5,237.5 65.5,244.5C 43.5,219.5 21.5,194.5 -0.5,169.5C -0.5,162.5 -0.5,155.5 -0.5,148.5 Z"/></g>
<g><path style="opacity:1" fill="#e44876" d="M 314.5,100.5 C 325.306,100.619 335.973,101.619 346.5,103.5C 366.423,126.989 386.589,150.322 407,173.5C 407.483,172.552 407.649,171.552 407.5,170.5C 410.199,184.896 411.533,199.562 411.5,214.5C 399.611,198.936 386.945,183.936 373.5,169.5C 378.159,162.904 379.659,155.57 378,147.5C 370.349,132.671 358.849,128.671 343.5,135.5C 334.234,123.561 324.567,111.894 314.5,100.5 Z"/></g>
<g><path style="opacity:0.999" fill="#da4186" d="M 433.5,129.5 C 459.82,158.491 485.82,187.824 511.5,217.5C 511.5,226.5 511.5,235.5 511.5,244.5C 488.736,217.979 465.736,191.646 442.5,165.5C 441.205,153.054 438.205,141.054 433.5,129.5 Z"/></g>
<g><path style="opacity:1" fill="#fffdfd" d="M 245.5,158.5 C 252.167,158.5 258.833,158.5 265.5,158.5C 277.075,160.566 288.408,163.899 299.5,168.5C 322.614,181.618 338.947,200.618 348.5,225.5C 351.123,235.327 352.457,245.327 352.5,255.5C 352.586,263.646 351.586,271.646 349.5,279.5C 347.622,286.801 344.955,293.801 341.5,300.5C 338.562,306.099 335.229,311.433 331.5,316.5C 327.862,320.474 324.195,324.474 320.5,328.5C 314.332,333.083 307.999,337.417 301.5,341.5C 297.496,343.169 293.496,344.836 289.5,346.5C 283.356,348.952 277.023,350.619 270.5,351.5C 266.19,352.08 261.857,352.414 257.5,352.5C 249.416,352.685 241.416,352.018 233.5,350.5C 224.614,347.76 215.948,344.427 207.5,340.5C 188.043,328.261 173.71,311.594 164.5,290.5C 161.569,281.589 159.569,272.589 158.5,263.5C 158.5,256.833 158.5,250.167 158.5,243.5C 159.833,237.833 161.167,232.167 162.5,226.5C 164.554,220.724 166.888,215.057 169.5,209.5C 172.154,205.537 174.82,201.537 177.5,197.5C 181.823,191.511 186.823,186.178 192.5,181.5C 196.888,177.779 201.555,174.445 206.5,171.5C 212.046,168.56 217.713,165.894 223.5,163.5C 230.692,161.202 238.026,159.535 245.5,158.5 Z"/></g>
<g><path style="opacity:1" fill="#ff6e42" d="M 105.5,161.5 C 124.128,183.463 143.128,205.13 162.5,226.5C 161.167,232.167 159.833,237.833 158.5,243.5C 141.351,223.905 124.184,204.239 107,184.5C 105.579,182.595 104.412,180.595 103.5,178.5C 103.321,172.596 103.988,166.929 105.5,161.5 Z"/></g>
<g><path style="opacity:0.999" fill="#dd4280" d="M 442.5,165.5 C 465.736,191.646 488.736,217.979 511.5,244.5C 511.5,254.833 511.5,265.167 511.5,275.5C 488.931,250.02 466.597,224.354 444.5,198.5C 444.672,187.434 444.005,176.434 442.5,165.5 Z"/></g>
<g><path style="opacity:1" fill="#ff9248" d="M -0.5,169.5 C 21.5,194.5 43.5,219.5 65.5,244.5C 65.6663,251.508 65.4996,258.508 65,265.5C 43.3016,240.307 21.4682,215.307 -0.5,190.5C -0.5,183.5 -0.5,176.5 -0.5,169.5 Z"/></g>
<g><path style="opacity:1" fill="#e7486c" d="M 373.5,169.5 C 386.945,183.936 399.611,198.936 411.5,214.5C 411.5,222.833 411.5,231.167 411.5,239.5C 393.843,218.874 376.177,198.207 358.5,177.5C 364.507,176.664 369.507,173.997 373.5,169.5 Z"/></g>
<g><path style="opacity:1" fill="#ff7343" d="M 103.5,178.5 C 104.412,180.595 105.579,182.595 107,184.5C 124.184,204.239 141.351,223.905 158.5,243.5C 158.5,250.167 158.5,256.833 158.5,263.5C 140.147,243.114 121.647,222.114 103,200.5C 102.501,196.848 102.335,193.182 102.5,189.5C 102.185,185.629 102.518,181.962 103.5,178.5 Z"/></g>
<g><path style="opacity:1" fill="#ff994a" d="M -0.5,190.5 C 21.4682,215.307 43.3016,240.307 65,265.5C 65.4996,258.508 65.6663,251.508 65.5,244.5C 65.5,237.5 65.5,230.5 65.5,223.5C 65.1771,217.31 65.5104,211.31 66.5,205.5C 66.5,235.167 66.5,264.833 66.5,294.5C 65.6981,293.048 65.1981,291.382 65,289.5C 43.3016,264.307 21.4682,239.307 -0.5,214.5C -0.5,206.5 -0.5,198.5 -0.5,190.5 Z"/></g>
<g><path style="opacity:1" fill="#f6514f" d="M 244.5,193.5 C 270.915,189.36 292.081,198.027 308,219.5C 317.584,235.599 320.084,252.599 315.5,270.5C 293.71,244.872 271.71,219.372 249.5,194C 247.866,193.506 246.199,193.34 244.5,193.5 Z"/></g>
<g><path style="opacity:1" fill="#fa5247" d="M 244.5,193.5 C 246.199,193.34 247.866,193.506 249.5,194C 271.71,219.372 293.71,244.872 315.5,270.5C 314.926,277.562 312.593,283.895 308.5,289.5C 282.898,258.559 256.898,227.893 230.5,197.5C 234.712,194.944 239.378,193.61 244.5,193.5 Z"/></g>
<g><path style="opacity:1" fill="#fd5341" d="M 230.5,197.5 C 256.898,227.893 282.898,258.559 308.5,289.5C 307.928,291.255 307.094,292.922 306,294.5C 303.613,297.957 300.78,300.957 297.5,303.5C 296.588,301.405 295.421,299.405 294,297.5C 267.635,266.974 241.135,236.64 214.5,206.5C 219.221,202.471 224.554,199.471 230.5,197.5 Z"/></g>
<g><path style="opacity:1" fill="#ff7a45" d="M 102.5,189.5 C 102.335,193.182 102.501,196.848 103,200.5C 121.647,222.114 140.147,243.114 158.5,263.5C 159.569,272.589 161.569,281.589 164.5,290.5C 164.631,291.239 164.464,291.906 164,292.5C 143.302,268.307 122.468,244.307 101.5,220.5C 101.5,216.833 101.5,213.167 101.5,209.5C 101.176,202.646 101.509,195.979 102.5,189.5 Z"/></g>
<g><path style="opacity:0.999" fill="#e14479" d="M 444.5,198.5 C 466.597,224.354 488.931,250.02 511.5,275.5C 511.5,284.167 511.5,292.833 511.5,301.5C 489.532,276.693 467.698,251.693 446,226.5C 445.814,229.036 445.314,231.369 444.5,233.5C 444.5,221.833 444.5,210.167 444.5,198.5 Z"/></g>
<g><path style="opacity:1" fill="#ff593f" d="M 214.5,206.5 C 241.135,236.64 267.635,266.974 294,297.5C 295.421,299.405 296.588,301.405 297.5,303.5C 291.762,308.705 285.096,312.372 277.5,314.5C 252.07,284.647 226.403,254.98 200.5,225.5C 203.63,218.036 208.297,211.703 214.5,206.5 Z"/></g>
<g><path style="opacity:1" fill="#ff8045" d="M 101.5,220.5 C 122.468,244.307 143.302,268.307 164,292.5C 164.464,291.906 164.631,291.239 164.5,290.5C 173.71,311.594 188.043,328.261 207.5,340.5C 207.062,340.435 206.728,340.601 206.5,341C 226.336,364.334 246.336,387.5 266.5,410.5C 260.833,410.5 255.167,410.5 249.5,410.5C 247.735,409.539 245.735,409.205 243.5,409.5C 196.401,354.305 149.068,299.305 101.5,244.5C 101.5,236.5 101.5,228.5 101.5,220.5 Z"/></g>
<g><path style="opacity:1" fill="#ff9f4a" d="M -0.5,214.5 C 21.4682,239.307 43.3016,264.307 65,289.5C 65.1981,291.382 65.6981,293.048 66.5,294.5C 66.5,300.5 66.5,306.5 66.5,312.5C 43.9307,287.02 21.5974,261.354 -0.5,235.5C -0.5,228.5 -0.5,221.5 -0.5,214.5 Z"/></g>
<g><path style="opacity:1" fill="#f04c5a" d="M 410.5,295.5 C 410.573,303.854 410.24,312.188 409.5,320.5C 390.128,299.13 371.128,277.463 352.5,255.5C 352.457,245.327 351.123,235.327 348.5,225.5C 348.81,224.262 349.31,224.262 350,225.5C 370.032,249.026 390.198,272.359 410.5,295.5 Z"/></g>
<g><path style="opacity:1" fill="#ff6040" d="M 200.5,225.5 C 226.403,254.98 252.07,284.647 277.5,314.5C 273.203,316.698 268.536,317.698 263.5,317.5C 261.629,317.141 260.129,316.141 259,314.5C 238,290.167 217,265.833 196,241.5C 195.51,240.207 195.343,238.873 195.5,237.5C 196.115,232.952 197.781,228.952 200.5,225.5 Z"/></g>
<g><path style="opacity:0.998" fill="#e44573" d="M 511.5,301.5 C 511.5,310.5 511.5,319.5 511.5,328.5C 489.403,302.646 467.069,276.98 444.5,251.5C 444.5,245.5 444.5,239.5 444.5,233.5C 445.314,231.369 445.814,229.036 446,226.5C 467.698,251.693 489.532,276.693 511.5,301.5 Z"/></g>
<g><path style="opacity:1" fill="#ffa54b" d="M -0.5,235.5 C 21.5974,261.354 43.9307,287.02 66.5,312.5C 66.6291,319.845 66.9625,327.178 67.5,334.5C 44.4604,308.796 21.7937,282.796 -0.5,256.5C -0.5,249.5 -0.5,242.5 -0.5,235.5 Z"/></g>
<g><path style="opacity:1" fill="#ff6741" d="M 195.5,237.5 C 195.343,238.873 195.51,240.207 196,241.5C 217,265.833 238,290.167 259,314.5C 260.129,316.141 261.629,317.141 263.5,317.5C 260.686,318.165 257.686,318.498 254.5,318.5C 249.255,318.608 244.255,317.942 239.5,316.5C 224.835,299.667 210.335,282.667 196,265.5C 195.329,264.748 194.496,264.414 193.5,264.5C 193.334,257.159 193.5,249.826 194,242.5C 194.198,240.618 194.698,238.952 195.5,237.5 Z"/></g>
<g><path style="opacity:1" fill="#ff8646" d="M 101.5,244.5 C 149.068,299.305 196.401,354.305 243.5,409.5C 237.491,409.666 231.491,409.499 225.5,409C 184.707,361.205 143.54,313.705 102,266.5C 101.5,259.174 101.334,251.841 101.5,244.5 Z"/></g>
<g><path style="opacity:0.998" fill="#e6476d" d="M 444.5,251.5 C 467.069,276.98 489.403,302.646 511.5,328.5C 511.5,337.167 511.5,345.833 511.5,354.5C 489.167,329.167 466.833,303.833 444.5,278.5C 444.5,269.5 444.5,260.5 444.5,251.5 Z"/></g>
<g><path style="opacity:1" fill="#ffab4d" d="M -0.5,256.5 C 21.7937,282.796 44.4604,308.796 67.5,334.5C 68.4442,340.994 69.1109,347.661 69.5,354.5C 69.6495,355.552 69.4828,356.552 69,357.5C 45.9681,330.973 22.8014,304.64 -0.5,278.5C -0.5,271.167 -0.5,263.833 -0.5,256.5 Z"/></g>
<g><path style="opacity:1" fill="#ff6e44" d="M 193.5,264.5 C 194.496,264.414 195.329,264.748 196,265.5C 210.335,282.667 224.835,299.667 239.5,316.5C 212.656,309.549 197.322,292.215 193.5,264.5 Z"/></g>
<g><path style="opacity:1" fill="#ff8c48" d="M 101.5,209.5 C 101.5,213.167 101.5,216.833 101.5,220.5C 101.5,228.5 101.5,236.5 101.5,244.5C 101.334,251.841 101.5,259.174 102,266.5C 143.54,313.705 184.707,361.205 225.5,409C 231.491,409.499 237.491,409.666 243.5,409.5C 245.735,409.205 247.735,409.539 249.5,410.5C 235.478,410.722 221.478,410.388 207.5,409.5C 172.511,368.512 137.177,327.846 101.5,287.5C 101.672,286.508 101.338,285.842 100.5,285.5C 100.169,259.995 100.502,234.661 101.5,209.5 Z"/></g>
<g><path style="opacity:1" fill="#f34e54" d="M 352.5,255.5 C 371.128,277.463 390.128,299.13 409.5,320.5C 409.483,328.701 408.817,336.701 407.5,344.5C 388.116,322.788 368.782,301.121 349.5,279.5C 351.586,271.646 352.586,263.646 352.5,255.5 Z"/></g>
<g><path style="opacity:1" fill="#ffb24e" d="M -0.5,278.5 C 22.8014,304.64 45.9681,330.973 69,357.5C 69.4828,356.552 69.6495,355.552 69.5,354.5C 72.5778,370.39 78.2444,385.39 86.5,399.5C 86.631,400.239 86.4643,400.906 86,401.5C 56.9288,368.603 28.0955,335.603 -0.5,302.5C -0.5,294.5 -0.5,286.5 -0.5,278.5 Z"/></g>
<g><path style="opacity:0.997" fill="#ea4967" d="M 444.5,278.5 C 466.833,303.833 489.167,329.167 511.5,354.5C 511.5,364.833 511.5,375.167 511.5,385.5C 489.167,360.167 466.833,334.833 444.5,309.5C 444.5,299.167 444.5,288.833 444.5,278.5 Z"/></g>
<g><path style="opacity:1" fill="#f6504e" d="M 349.5,279.5 C 368.782,301.121 388.116,322.788 407.5,344.5C 407.046,352.985 405.046,360.985 401.5,368.5C 381.5,345.833 361.5,323.167 341.5,300.5C 344.955,293.801 347.622,286.801 349.5,279.5 Z"/></g>
<g><path style="opacity:1" fill="#ff9248" d="M 101.5,287.5 C 137.177,327.846 172.511,368.512 207.5,409.5C 201.833,409.5 196.167,409.5 190.5,409.5C 160.556,376.321 131.056,342.654 102,308.5C 101.5,301.508 101.334,294.508 101.5,287.5 Z"/></g>
<g><path style="opacity:0.999" fill="#ffb84e" d="M -0.5,302.5 C 28.0955,335.603 56.9288,368.603 86,401.5C 86.4643,400.906 86.631,400.239 86.5,399.5C 90.3435,405.161 94.6769,410.494 99.5,415.5C 98.475,415.897 98.3083,416.563 99,417.5C 126.376,448.705 153.543,480.039 180.5,511.5C 174.5,511.5 168.5,511.5 162.5,511.5C 108.138,448.808 53.8042,386.141 -0.5,323.5C -0.5,316.5 -0.5,309.5 -0.5,302.5 Z"/></g>
<g><path style="opacity:1" fill="#ff994b" d="M 100.5,285.5 C 101.338,285.842 101.672,286.508 101.5,287.5C 101.334,294.508 101.5,301.508 102,308.5C 131.056,342.654 160.556,376.321 190.5,409.5C 183.121,409.229 175.788,408.562 168.5,407.5C 165.972,406.492 163.805,404.826 162,402.5C 143.008,379.678 123.508,357.344 103.5,335.5C 102.686,333.369 102.186,331.036 102,328.5C 101.028,314.182 100.528,299.848 100.5,285.5 Z"/></g>
<g><path style="opacity:1" fill="#fa5247" d="M 341.5,300.5 C 361.5,323.167 381.5,345.833 401.5,368.5C 399.437,374.966 396.104,380.632 391.5,385.5C 390.25,383.068 388.75,380.734 387,378.5C 369.764,359.02 352.764,339.353 336,319.5C 334.871,317.859 333.371,316.859 331.5,316.5C 335.229,311.433 338.562,306.099 341.5,300.5 Z"/></g>
<g><path style="opacity:1" fill="#fd5341" d="M 331.5,316.5 C 333.371,316.859 334.871,317.859 336,319.5C 352.764,339.353 369.764,359.02 387,378.5C 388.75,380.734 390.25,383.068 391.5,385.5C 388.072,390.264 383.738,393.93 378.5,396.5C 359.564,373.559 340.231,350.892 320.5,328.5C 324.195,324.474 327.862,320.474 331.5,316.5 Z"/></g>
<g><path style="opacity:0.996" fill="#ed4a60" d="M 444.5,309.5 C 466.833,334.833 489.167,360.167 511.5,385.5C 511.5,392.167 511.5,398.833 511.5,405.5C 510.549,406.919 510.216,408.585 510.5,410.5C 488.167,385.167 465.833,359.833 443.5,334.5C 444.24,326.188 444.573,317.854 444.5,309.5 Z"/></g>
<g><path style="opacity:0.997" fill="#ffbe4f" d="M -0.5,323.5 C 53.8042,386.141 108.138,448.808 162.5,511.5C 155.5,511.5 148.5,511.5 141.5,511.5C 141.918,510.778 142.584,510.278 143.5,510C 95.635,454.641 47.635,399.474 -0.5,344.5C -0.5,337.5 -0.5,330.5 -0.5,323.5 Z"/></g>
<g><path style="opacity:1" fill="#ff593f" d="M 320.5,328.5 C 340.231,350.892 359.564,373.559 378.5,396.5C 371.45,400.854 363.784,403.854 355.5,405.5C 337.899,383.893 319.899,362.56 301.5,341.5C 307.999,337.417 314.332,333.083 320.5,328.5 Z"/></g>
<g><path style="opacity:0.995" fill="#f04d5a" d="M 443.5,334.5 C 465.833,359.833 488.167,385.167 510.5,410.5C 509.372,418.831 507.372,426.831 504.5,434.5C 504.736,431.774 503.903,429.441 502,427.5C 481.263,404.27 460.763,380.936 440.5,357.5C 441.562,349.802 442.562,342.136 443.5,334.5 Z"/></g>
<g><path style="opacity:1" fill="#ff6040" d="M 301.5,341.5 C 319.899,362.56 337.899,383.893 355.5,405.5C 350.605,406.879 345.605,407.879 340.5,408.5C 323.376,388.206 306.043,368.039 288.5,348C 289.056,347.617 289.389,347.117 289.5,346.5C 293.496,344.836 297.496,343.169 301.5,341.5 Z"/></g>
<g><path style="opacity:1" fill="#ffa14c" d="M 103.5,335.5 C 123.508,357.344 143.008,379.678 162,402.5C 163.805,404.826 165.972,406.492 168.5,407.5C 124.532,403.857 102.865,379.857 103.5,335.5 Z"/></g>
<g><path style="opacity:0.998" fill="#ffc450" d="M -0.5,344.5 C 47.635,399.474 95.635,454.641 143.5,510C 142.584,510.278 141.918,510.778 141.5,511.5C 141.167,511.5 140.833,511.5 140.5,511.5C 135.025,510.511 129.358,510.178 123.5,510.5C 123.649,509.448 123.483,508.448 123,507.5C 81.5952,460.27 40.4285,412.936 -0.5,365.5C -0.5,358.5 -0.5,351.5 -0.5,344.5 Z"/></g>
<g><path style="opacity:1" fill="#ff7944" d="M 207.5,340.5 C 215.948,344.427 224.614,347.76 233.5,350.5C 250.5,370.5 267.5,390.5 284.5,410.5C 278.5,410.5 272.5,410.5 266.5,410.5C 246.336,387.5 226.336,364.334 206.5,341C 206.728,340.601 207.062,340.435 207.5,340.5 Z"/></g>
<g><path style="opacity:1" fill="#ff6741" d="M 289.5,346.5 C 289.389,347.117 289.056,347.617 288.5,348C 306.043,368.039 323.376,388.206 340.5,408.5C 335.897,409.383 331.23,409.717 326.5,409.5C 324.076,409.808 321.743,409.474 319.5,408.5C 302.77,389.775 286.437,370.775 270.5,351.5C 277.023,350.619 283.356,348.952 289.5,346.5 Z"/></g>
<g><path style="opacity:1" fill="#ff7343" d="M 233.5,350.5 C 241.416,352.018 249.416,352.685 257.5,352.5C 256.602,353.158 255.602,353.824 254.5,354.5C 270.897,372.892 286.897,391.558 302.5,410.5C 296.5,410.5 290.5,410.5 284.5,410.5C 267.5,390.5 250.5,370.5 233.5,350.5 Z"/></g>
<g><path style="opacity:1" fill="#ff6e43" d="M 270.5,351.5 C 286.437,370.775 302.77,389.775 319.5,408.5C 321.743,409.474 324.076,409.808 326.5,409.5C 318.684,410.492 310.684,410.826 302.5,410.5C 286.897,391.558 270.897,372.892 254.5,354.5C 255.602,353.824 256.602,353.158 257.5,352.5C 261.857,352.414 266.19,352.08 270.5,351.5 Z"/></g>
<g><path style="opacity:0.997" fill="#f34e54" d="M 440.5,357.5 C 460.763,380.936 481.263,404.27 502,427.5C 503.903,429.441 504.736,431.774 504.5,434.5C 503.296,439.895 501.296,444.895 498.5,449.5C 477.684,425.906 456.851,402.239 436,378.5C 435.617,379.056 435.117,379.389 434.5,379.5C 436.816,372.233 438.816,364.9 440.5,357.5 Z"/></g>
<g><path style="opacity:0.997" fill="#ffca51" d="M -0.5,365.5 C 40.4285,412.936 81.5952,460.27 123,507.5C 123.483,508.448 123.649,509.448 123.5,510.5C 115.998,510.077 108.665,509.41 101.5,508.5C 67.8445,468.846 33.8445,429.513 -0.5,390.5C -0.5,382.167 -0.5,373.833 -0.5,365.5 Z"/></g>
<g><path style="opacity:0.997" fill="#f64f4e" d="M 498.5,449.5 C 496.872,454.09 494.705,458.423 492,462.5C 490.951,464.618 489.451,466.284 487.5,467.5C 466.462,444.464 445.795,421.13 425.5,397.5C 429.027,391.779 432.027,385.779 434.5,379.5C 435.117,379.389 435.617,379.056 436,378.5C 456.851,402.239 477.684,425.906 498.5,449.5 Z"/></g>
<g><path style="opacity:0.992" fill="#ffd153" d="M -0.5,390.5 C 33.8445,429.513 67.8445,468.846 101.5,508.5C 94.7362,508.613 88.0696,507.946 81.5,506.5C 57.877,478.373 34.0436,450.373 10,422.5C 7.8943,419.882 5.3943,417.882 2.5,416.5C 1.67092,410.342 0.670921,404.342 -0.5,398.5C -0.5,395.833 -0.5,393.167 -0.5,390.5 Z"/></g>
<g><path style="opacity:0.998" fill="#fa5147" d="M 425.5,397.5 C 445.795,421.13 466.462,444.464 487.5,467.5C 484.617,473.055 480.617,477.722 475.5,481.5C 456.502,459.667 437.669,437.667 419,415.5C 417.871,413.859 416.371,412.859 414.5,412.5C 418.411,407.678 422.078,402.678 425.5,397.5 Z"/></g>
<g><path style="opacity:0.997" fill="#fd5341" d="M 414.5,412.5 C 416.371,412.859 417.871,413.859 419,415.5C 437.669,437.667 456.502,459.667 475.5,481.5C 471.761,485.568 467.428,488.901 462.5,491.5C 442.116,468.788 421.783,446.121 401.5,423.5C 405.515,419.487 409.848,415.821 414.5,412.5 Z"/></g>
<g><path style="opacity:1" fill="#ffb24e" d="M 99.5,415.5 C 111.4,425.45 124.734,432.783 139.5,437.5C 139.062,437.435 138.728,437.601 138.5,438C 159.71,462.372 180.71,486.872 201.5,511.5C 194.5,511.5 187.5,511.5 180.5,511.5C 153.543,480.039 126.376,448.705 99,417.5C 98.3083,416.563 98.475,415.897 99.5,415.5 Z"/></g>
<g><path style="opacity:0.984" fill="#ffd854" d="M 2.5,416.5 C 5.3943,417.882 7.8943,419.882 10,422.5C 34.0436,450.373 57.877,478.373 81.5,506.5C 48.7298,498.554 25.5631,479.221 12,448.5C 7.71582,438.149 4.54915,427.482 2.5,416.5 Z"/></g>
<g><path style="opacity:0.998" fill="#ff593e" d="M 401.5,423.5 C 421.783,446.121 442.116,468.788 462.5,491.5C 456.032,496.734 448.698,500.401 440.5,502.5C 420.465,479.8 400.799,456.8 381.5,433.5C 388.472,430.681 395.139,427.347 401.5,423.5 Z"/></g>
<g><path style="opacity:0.997" fill="#ff6040" d="M 381.5,433.5 C 400.799,456.8 420.465,479.8 440.5,502.5C 436.044,504.542 431.377,506.209 426.5,507.5C 407.209,485.038 387.709,462.705 368,440.5C 367.53,439.423 367.697,438.423 368.5,437.5C 372.891,436.319 377.224,434.986 381.5,433.5 Z"/></g>
<g><path style="opacity:1" fill="#ffab4d" d="M 139.5,437.5 C 147.662,438.967 155.662,440.633 163.5,442.5C 162.448,442.351 161.448,442.517 160.5,443C 180.75,465.411 200.417,488.244 219.5,511.5C 213.5,511.5 207.5,511.5 201.5,511.5C 180.71,486.872 159.71,462.372 138.5,438C 138.728,437.601 139.062,437.435 139.5,437.5 Z"/></g>
<g><path style="opacity:0.995" fill="#ff6741" d="M 368.5,437.5 C 367.697,438.423 367.53,439.423 368,440.5C 387.709,462.705 407.209,485.038 426.5,507.5C 419.807,507.987 413.14,508.654 406.5,509.5C 387.336,487.5 368.336,465.333 349.5,443C 350.056,442.617 350.389,442.117 350.5,441.5C 356.533,440.294 362.533,438.96 368.5,437.5 Z"/></g>
<g><path style="opacity:1" fill="#ffa54c" d="M 163.5,442.5 C 172.33,442.971 180.996,443.638 189.5,444.5C 186.482,444.335 183.482,444.502 180.5,445C 200.042,467.038 219.376,489.205 238.5,511.5C 232.167,511.5 225.833,511.5 219.5,511.5C 200.417,488.244 180.75,465.411 160.5,443C 161.448,442.517 162.448,442.351 163.5,442.5 Z"/></g>
<g><path style="opacity:0.995" fill="#ff6d42" d="M 350.5,441.5 C 350.389,442.117 350.056,442.617 349.5,443C 368.336,465.333 387.336,487.5 406.5,509.5C 399.814,509.527 393.148,509.861 386.5,510.5C 386.918,509.778 387.584,509.278 388.5,509C 369.226,487.569 350.559,465.736 332.5,443.5C 338.558,443.197 344.558,442.531 350.5,441.5 Z"/></g>
<g><path style="opacity:1" fill="#ff9f4b" d="M 189.5,444.5 C 210.167,444.5 230.833,444.5 251.5,444.5C 247.702,445.483 243.702,445.817 239.5,445.5C 233.5,445.5 227.5,445.5 221.5,445.5C 214.468,445.17 207.468,445.503 200.5,446.5C 219.189,468.186 237.856,489.853 256.5,511.5C 250.5,511.5 244.5,511.5 238.5,511.5C 219.376,489.205 200.042,467.038 180.5,445C 183.482,444.502 186.482,444.335 189.5,444.5 Z"/></g>
<g><path style="opacity:0.996" fill="#ff7343" d="M 332.5,443.5 C 350.559,465.736 369.226,487.569 388.5,509C 387.584,509.278 386.918,509.778 386.5,510.5C 381.167,510.5 375.833,510.5 370.5,510.5C 352.209,488.206 333.542,466.206 314.5,444.5C 320.509,444.299 326.509,443.966 332.5,443.5 Z"/></g>
<g><path style="opacity:1" fill="#ff9949" d="M 221.5,445.5 C 239.791,467.794 258.458,489.794 277.5,511.5C 270.5,511.5 263.5,511.5 256.5,511.5C 237.856,489.853 219.189,468.186 200.5,446.5C 207.468,445.503 214.468,445.17 221.5,445.5 Z"/></g>
<g><path style="opacity:1" fill="#ff9248" d="M 221.5,445.5 C 227.5,445.5 233.5,445.5 239.5,445.5C 258.542,467.206 277.209,489.206 295.5,511.5C 289.5,511.5 283.5,511.5 277.5,511.5C 258.458,489.794 239.791,467.794 221.5,445.5 Z"/></g>
<g><path style="opacity:1" fill="#ff8d49" d="M 251.5,444.5 C 270.5,444.5 289.5,444.5 308.5,444.5C 305.038,445.482 301.371,445.815 297.5,445.5C 290.167,445.5 282.833,445.5 275.5,445.5C 269.491,445.334 263.491,445.501 257.5,446C 276.774,467.431 295.441,489.264 313.5,511.5C 307.5,511.5 301.5,511.5 295.5,511.5C 277.209,489.206 258.542,467.206 239.5,445.5C 243.702,445.817 247.702,445.483 251.5,444.5 Z"/></g>
<g><path style="opacity:1" fill="#ff8646" d="M 275.5,445.5 C 294.5,467.5 313.5,489.5 332.5,511.5C 326.167,511.5 319.833,511.5 313.5,511.5C 295.441,489.264 276.774,467.431 257.5,446C 263.491,445.501 269.491,445.334 275.5,445.5 Z"/></g>
<g><path style="opacity:0.998" fill="#ff8045" d="M 275.5,445.5 C 282.833,445.5 290.167,445.5 297.5,445.5C 315.791,467.794 334.458,489.794 353.5,511.5C 346.5,511.5 339.5,511.5 332.5,511.5C 313.5,489.5 294.5,467.5 275.5,445.5 Z"/></g>
<g><path style="opacity:0.995" fill="#ff7944" d="M 308.5,444.5 C 310.5,444.5 312.5,444.5 314.5,444.5C 333.542,466.206 352.209,488.206 370.5,510.5C 370.5,510.833 370.5,511.167 370.5,511.5C 364.833,511.5 359.167,511.5 353.5,511.5C 334.458,489.794 315.791,467.794 297.5,445.5C 301.371,445.815 305.038,445.482 308.5,444.5 Z"/></g>
</svg>
