<?xml version="1.0" encoding="UTF-8"?>
<!DOCTYPE svg PUBLIC "-//W3C//DTD SVG 1.1//EN" "http://www.w3.org/Graphics/SVG/1.1/DTD/svg11.dtd">
<svg xmlns="http://www.w3.org/2000/svg" version="1.1" width="512px" height="512px" style="shape-rendering:geometricPrecision; text-rendering:geometricPrecision; image-rendering:optimizeQuality; fill-rule:evenodd; clip-rule:evenodd" xmlns:xlink="http://www.w3.org/1999/xlink">
<g><path style="opacity:0.999" fill="#000000" d="M 44.5,-0.5 C 185.167,-0.5 325.833,-0.5 466.5,-0.5C 490.5,5.5 505.5,20.5 511.5,44.5C 511.5,185.167 511.5,325.833 511.5,466.5C 505.5,490.5 490.5,505.5 466.5,511.5C 325.833,511.5 185.167,511.5 44.5,511.5C 20.5,505.5 5.5,490.5 -0.5,466.5C -0.5,325.833 -0.5,185.167 -0.5,44.5C 5.5,20.5 20.5,5.5 44.5,-0.5 Z"/></g>
<g><path style="opacity:1" fill="#fefefe" d="M 154.5,145.5 C 211.269,141.787 251.102,165.787 274,217.5C 286.549,257.212 280.215,293.546 255,326.5C 219.393,365.024 176.893,375.191 127.5,357C 79.3922,332.804 57.5589,293.637 62,239.5C 72.5711,188.096 103.404,156.763 154.5,145.5 Z"/></g>
<g><path style="opacity:1" fill="#fdfdfd" d="M 339.5,151.5 C 354.603,150.801 366.769,156.467 376,168.5C 392.68,193.534 400.847,221.201 400.5,251.5C 401.35,278.408 396.183,304.075 385,328.5C 378.887,340.946 369.721,350.446 357.5,357C 341.863,361.901 328.696,358.068 318,345.5C 303.103,324.957 294.436,301.957 292,276.5C 287.471,241.155 293.471,207.822 310,176.5C 317.047,164.748 326.88,156.414 339.5,151.5 Z"/></g>
<g><path style="opacity:1" fill="#fcfcfc" d="M 428.5,162.5 C 432.432,162.26 435.266,163.927 437,167.5C 439.928,173.952 442.262,180.618 444,187.5C 451.322,232.501 451.322,277.501 444,322.5C 435,357.167 426,357.167 417,322.5C 410.072,279.23 409.739,235.896 416,192.5C 417.394,185.318 419.394,178.318 422,171.5C 423.675,168.015 425.842,165.015 428.5,162.5 Z"/></g>
</svg>
