<?xml version="1.0" encoding="UTF-8"?>
<!DOCTYPE svg PUBLIC "-//W3C//DTD SVG 1.1//EN" "http://www.w3.org/Graphics/SVG/1.1/DTD/svg11.dtd">
<svg xmlns="http://www.w3.org/2000/svg" version="1.1" width="512px" height="512px" style="shape-rendering:geometricPrecision; text-rendering:geometricPrecision; image-rendering:optimizeQuality; fill-rule:evenodd; clip-rule:evenodd" xmlns:xlink="http://www.w3.org/1999/xlink">
<g><path style="opacity:0.89" fill="#000000" d="M 361.5,64.5 C 407.711,60.858 443.544,78.1913 469,116.5C 485.643,147.768 487.976,180.101 476,213.5C 472.343,222.156 467.676,230.156 462,237.5C 461.667,300.167 461.333,362.833 461,425.5C 458.616,436.884 451.783,444.051 440.5,447C 309.5,447.667 178.5,447.667 47.5,447C 37.8435,444.677 31.3435,438.843 28,429.5C 27.3333,326.5 27.3333,223.5 28,120.5C 31.2603,111.573 37.427,105.739 46.5,103C 128.833,102.667 211.167,102.333 293.5,102C 311.669,81.4141 334.336,68.9141 361.5,64.5 Z M 373.5,72.5 C 415.838,73.7397 446.671,93.073 466,130.5C 483.55,176.138 474.383,215.638 438.5,249C 396.821,278.997 355.154,278.997 313.5,249C 278.939,217.643 269.106,179.81 284,135.5C 301.6,97.0588 331.434,76.0588 373.5,72.5 Z M 376.5,109.5 C 408.132,111.727 428.299,128.06 437,158.5C 439.069,172.196 437.069,185.196 431,197.5C 403.528,171.028 376.361,144.195 349.5,117C 358.239,113.069 367.239,110.569 376.5,109.5 Z M 47.5,111.5 C 126.836,111.167 206.169,111.5 285.5,112.5C 263.077,150.401 262.244,188.734 283,227.5C 308.366,265.929 344.199,283.096 390.5,279C 414.026,275.569 434.359,265.736 451.5,249.5C 452.667,307.83 452.833,366.164 452,424.5C 451.781,425.938 451.281,427.271 450.5,428.5C 414.326,383.164 377.993,337.998 341.5,293C 336.833,291 332.167,291 327.5,293C 306.962,314.538 286.128,335.704 265,356.5C 261.899,354.326 259.232,351.659 257,348.5C 233.439,316.55 209.272,285.05 184.5,254C 177.177,250.323 171.011,251.823 166,258.5C 123.167,314.833 80.3333,371.167 37.5,427.5C 36.7022,425.922 36.2022,424.256 36,422.5C 35.3333,324.167 35.3333,225.833 36,127.5C 36.9704,120.041 40.8037,114.707 47.5,111.5 Z M 319.5,147.5 C 347.277,173.443 374.277,200.276 400.5,228C 364.862,241.082 337.695,231.248 319,198.5C 312.961,181.464 313.128,164.464 319.5,147.5 Z M 114.5,158.5 C 134.85,160.85 146.184,172.184 148.5,192.5C 145.333,216.494 131.667,227.327 107.5,225C 91.3467,220.209 82.6801,209.376 81.5,192.5C 83.8024,172.533 94.8024,161.2 114.5,158.5 Z M 176.5,260.5 C 178.229,261.117 179.729,262.117 181,263.5C 206.117,296.952 231.617,330.118 257.5,363C 262.454,366.042 267.454,366.042 272.5,363C 292.5,342.333 312.5,321.667 332.5,301C 333.833,300.333 335.167,300.333 336.5,301C 372.88,345.711 408.88,390.711 444.5,436C 442.913,436.862 441.246,437.529 439.5,438C 309.5,438.667 179.5,438.667 49.5,438C 47.221,437.527 45.221,436.527 43.5,435C 87.7209,376.714 132.054,318.547 176.5,260.5 Z"/></g>
<g><path style="opacity:0.86" fill="#000000" d="M 367.5,101.5 C 405.048,98.5852 430.548,114.585 444,149.5C 449.467,170.861 446.634,191.028 435.5,210C 433.029,210.706 430.695,210.373 428.5,209C 398.333,178.833 368.167,148.667 338,118.5C 337.242,116.231 337.409,114.064 338.5,112C 347.749,106.976 357.416,103.476 367.5,101.5 Z M 376.5,109.5 C 367.239,110.569 358.239,113.069 349.5,117C 376.361,144.195 403.528,171.028 431,197.5C 437.069,185.196 439.069,172.196 437,158.5C 428.299,128.06 408.132,111.727 376.5,109.5 Z"/></g>
<g><path style="opacity:0.87" fill="#000000" d="M 316.5,134.5 C 318.199,134.34 319.866,134.506 321.5,135C 352.361,165.528 382.861,196.361 413,227.5C 413.536,229.567 413.036,231.401 411.5,233C 377.033,250.2 346.533,245.034 320,217.5C 305.482,198.236 301.482,176.903 308,153.5C 309.975,146.727 312.808,140.393 316.5,134.5 Z M 319.5,147.5 C 313.128,164.464 312.961,181.464 319,198.5C 337.695,231.248 364.862,241.082 400.5,228C 374.277,200.276 347.277,173.443 319.5,147.5 Z"/></g>
<g><path style="opacity:0.869" fill="#000000" d="M 105.5,150.5 C 123.029,147.857 137.529,153.19 149,166.5C 162.25,188.341 159.75,208.174 141.5,226C 126.627,235.75 110.96,237.083 94.5,230C 72.2262,214.318 67.0595,194.151 79,169.5C 85.8106,160.167 94.6439,153.833 105.5,150.5 Z M 114.5,158.5 C 94.8024,161.2 83.8024,172.533 81.5,192.5C 82.6801,209.376 91.3467,220.209 107.5,225C 131.667,227.327 145.333,216.494 148.5,192.5C 146.184,172.184 134.85,160.85 114.5,158.5 Z"/></g>
</svg>
