<?xml version="1.0" encoding="UTF-8"?>
<!DOCTYPE svg PUBLIC "-//W3C//DTD SVG 1.1//EN" "http://www.w3.org/Graphics/SVG/1.1/DTD/svg11.dtd">
<svg xmlns="http://www.w3.org/2000/svg" version="1.1" width="512px" height="512px" style="shape-rendering:geometricPrecision; text-rendering:geometricPrecision; image-rendering:optimizeQuality; fill-rule:evenodd; clip-rule:evenodd" xmlns:xlink="http://www.w3.org/1999/xlink">
<g><path style="opacity:0.999" fill="#29a71a" d="M 57.5,-0.5 C 189.5,-0.5 321.5,-0.5 453.5,-0.5C 485.167,6.5 504.5,25.8333 511.5,57.5C 511.5,189.5 511.5,321.5 511.5,453.5C 504.5,485.167 485.167,504.5 453.5,511.5C 321.5,511.5 189.5,511.5 57.5,511.5C 25.8333,504.5 6.5,485.167 -0.5,453.5C -0.5,321.5 -0.5,189.5 -0.5,57.5C 6.5,25.8333 25.8333,6.5 57.5,-0.5 Z"/></g>
<g><path style="opacity:1" fill="#fdfefd" d="M 243.5,95.5 C 309.428,93.8714 359.594,120.871 394,176.5C 424,235.485 420.667,292.485 384,347.5C 347.024,395.224 298.191,416.724 237.5,412C 219.011,409.668 201.344,404.502 184.5,396.5C 158.422,402.353 132.422,408.519 106.5,415C 98.1705,415.64 95.3371,411.807 98,403.5C 103.295,378.024 108.462,352.524 113.5,327C 86.3139,266.341 92.1473,209.174 131,155.5C 160.417,120.374 197.917,100.374 243.5,95.5 Z"/></g>
<g><path style="opacity:1" fill="#2aa71b" d="M 246.5,129.5 C 304.688,129.241 346.188,155.241 371,207.5C 389.363,261.547 378.196,308.38 337.5,348C 290.453,384.375 240.786,388.208 188.5,359.5C 172.626,363.427 156.792,367.427 141,371.5C 142.986,355.396 145.82,339.396 149.5,323.5C 144.381,310.983 139.548,298.316 135,285.5C 123.32,223.713 144.154,176.546 197.5,144C 213.089,136.192 229.422,131.358 246.5,129.5 Z"/></g>
<g><path style="opacity:1" fill="#fdfefd" d="M 200.5,177.5 C 204.875,177.347 208.708,178.68 212,181.5C 217.274,192.381 222.274,203.381 227,214.5C 227.701,217.928 227.368,221.262 226,224.5C 221.516,229.148 218.349,234.481 216.5,240.5C 216.466,243.433 217.299,246.1 219,248.5C 227.464,259.298 236.964,269.131 247.5,278C 254.627,283.787 262.293,288.787 270.5,293C 274.782,293.965 278.782,293.298 282.5,291C 285.833,287.667 289.167,284.333 292.5,281C 294.199,280.042 296.033,279.542 298,279.5C 310.656,282.456 323.156,285.956 335.5,290C 340.081,293.438 341.581,297.938 340,303.5C 331.12,322.354 316.286,331.687 295.5,331.5C 273.586,329.252 253.919,321.419 236.5,308C 216.873,293.376 200.373,275.876 187,255.5C 177.882,240.495 174.382,224.329 176.5,207C 179.583,197.502 184.916,189.502 192.5,183C 195.07,180.913 197.737,179.08 200.5,177.5 Z"/></g>
</svg>
