<?xml version="1.0" encoding="UTF-8"?>
<!DOCTYPE svg PUBLIC "-//W3C//DTD SVG 1.1//EN" "http://www.w3.org/Graphics/SVG/1.1/DTD/svg11.dtd">
<svg xmlns="http://www.w3.org/2000/svg" version="1.1" width="128px" height="128px" style="shape-rendering:geometricPrecision; text-rendering:geometricPrecision; image-rendering:optimizeQuality; fill-rule:evenodd; clip-rule:evenodd" xmlns:xlink="http://www.w3.org/1999/xlink">
<g><path style="opacity:0.863" fill="#000000" d="M 23.5,28.5 C 32.3418,27.1782 41.3418,27.1782 50.5,28.5C 55.4838,35.4797 60.8171,42.1464 66.5,48.5C 72.989,41.8431 79.3223,35.0098 85.5,28C 89.8713,27.1725 94.2047,27.3391 98.5,28.5C 90.3913,38.7784 81.7247,48.6118 72.5,58C 82.7121,71.59 93.0455,85.09 103.5,98.5C 94.8333,99.8333 86.1667,99.8333 77.5,98.5C 71.4748,90.9754 65.6415,83.3087 60,75.5C 52.8333,83.3333 45.6667,91.1667 38.5,99C 34.1287,99.8275 29.7953,99.6609 25.5,98.5C 34.7159,87.9059 44.0493,77.4059 53.5,67C 43.2544,54.2669 33.2544,41.4336 23.5,28.5 Z M 40.5,35.5 C 43.0444,35.1043 45.2111,35.771 47,37.5C 60.1357,55.6025 73.6357,73.4358 87.5,91C 84.3637,92.0405 81.8637,91.2072 80,88.5C 66.8152,70.774 53.6485,53.1073 40.5,35.5 Z"/></g>
</svg>
