<?xml version="1.0" encoding="iso-8859-1"?>
<!-- Uploaded to: SVG Repo, www.svgrepo.com, Generator: SVG Repo Mixer Tools -->
<!DOCTYPE svg PUBLIC "-//W3C//DTD SVG 1.1//EN" "http://www.w3.org/Graphics/SVG/1.1/DTD/svg11.dtd">
<svg fill="#000000" version="1.1" id="Capa_1" xmlns="http://www.w3.org/2000/svg" xmlns:xlink="http://www.w3.org/1999/xlink" 
	 width="800px" height="800px" viewBox="0 0 94 94" xml:space="preserve">
<g>
	<path d="M89,0H5C2.238,0,0,2.239,0,5v84c0,2.761,2.238,5,5,5h84c2.762,0,5-2.239,5-5V5C94,2.239,91.762,0,89,0z M27.165,62.335
		H16.143c-0.663,0-1.161-0.3-1.44-0.752c-0.29-0.469-0.307-1.082,0-1.69l11.711-20.667c0.014-0.022,0.014-0.038,0-0.063
		L18.962,26.26c-0.311-0.614-0.354-1.22-0.064-1.69c0.282-0.457,0.84-0.689,1.504-0.689h11.021c1.691,0,2.521,1.089,3.07,2.066
		c0,0,7.533,13.142,7.578,13.215c-0.447,0.786-11.899,21.043-11.899,21.043C29.607,61.223,28.813,62.335,27.165,62.335z
		 M79.286,11.192L54.882,54.344c-0.015,0.021-0.015,0.051,0,0.073l15.539,28.392c0.308,0.609,0.315,1.231,0.021,1.701
		c-0.278,0.455-0.797,0.704-1.461,0.704h-11.01c-1.688,0-2.533-1.121-3.08-2.097c0,0-15.622-28.66-15.66-28.736
		c0.78-1.383,24.527-43.494,24.527-43.494c0.592-1.063,1.305-2.099,2.949-2.099h11.137c0.664,0,1.186,0.251,1.465,0.703
		C79.602,9.962,79.593,10.583,79.286,11.192z"/>
</g>
</svg>